<svg width="80" height="80" viewBox="0 0 80 80" fill="none" xmlns="http://www.w3.org/2000/svg">
<g clip-path="url(#clip0_1063_315)">
<mask id="mask0_1063_315" style="mask-type:luminance" maskUnits="userSpaceOnUse" x="0" y="0" width="80" height="80">
<path d="M80 0H0V80H80V0Z" fill="white"/>
</mask>
<g mask="url(#mask0_1063_315)">
<path d="M40.0028 0C29.1502 0 27.7882 0.0474538 23.5258 0.241428C19.2717 0.436236 16.3679 1.10974 13.8271 2.09792C11.1989 3.11858 8.96942 4.4839 6.74826 6.70586C4.52546 8.927 3.16014 11.1564 2.13614 13.7839C1.14547 16.3255 0.471134 19.2301 0.279658 23.4826C0.0890129 27.745 0.0390625 29.1078 0.0390625 39.9604C0.0390625 50.813 0.0873489 52.1708 0.28049 56.4334C0.476132 60.6874 1.14963 63.5912 2.13698 66.132C3.15848 68.7602 4.5238 70.9898 6.74576 73.2108C8.96606 75.4336 11.1955 76.8024 13.8221 77.823C16.3646 78.8112 19.2692 79.4846 23.5224 79.6796C27.785 79.8734 29.1462 79.9208 39.9978 79.9208C50.8512 79.9208 52.2092 79.8734 56.4716 79.6796C60.7256 79.4846 63.6328 78.8112 66.1752 77.823C68.8028 76.8024 71.0288 75.4336 73.2492 73.2108C75.472 70.9898 76.8372 68.7602 77.8612 66.133C78.8436 63.5912 79.518 60.6866 79.7178 56.4342C79.9092 52.1718 79.9592 50.813 79.9592 39.9604C79.9592 29.1078 79.9092 27.7458 79.7178 23.4834C79.518 19.2293 78.8436 16.3255 77.8612 13.7847C76.8372 11.1564 75.472 8.927 73.2492 6.70586C71.0264 4.48306 68.8034 3.11774 66.1728 2.09792C63.6254 1.10974 60.7198 0.436236 56.4658 0.241428C52.2034 0.0474538 50.8462 0 39.9904 0H40.0028ZM36.418 7.2012C37.482 7.19954 38.6692 7.2012 40.0028 7.2012C50.6722 7.2012 51.9368 7.2395 56.1502 7.43098C60.0464 7.60914 62.161 8.26014 63.5696 8.80712C65.4344 9.53142 66.7638 10.3972 68.1616 11.7958C69.5602 13.1944 70.426 14.5264 71.152 16.3913C71.699 17.7982 72.3508 19.9128 72.5282 23.809C72.7196 28.0214 72.7612 29.2868 72.7612 39.9514C72.7612 50.6158 72.7196 51.8812 72.5282 56.0936C72.35 59.9898 71.699 62.1044 71.152 63.5112C70.4278 65.3762 69.5602 66.704 68.1616 68.1018C66.763 69.5004 65.4352 70.3662 63.5696 71.0906C62.1626 71.64 60.0464 72.2894 56.1502 72.4674C51.9378 72.659 50.6722 72.7006 40.0028 72.7006C29.3326 72.7006 28.068 72.659 23.8554 72.4674C19.9594 72.2876 17.8448 71.6366 16.4353 71.0896C14.5705 70.3654 13.2385 69.4996 11.8399 68.101C10.4413 66.7024 9.57544 65.3736 8.84954 63.508C8.30256 62.101 7.6507 59.9864 7.47338 56.0904C7.2819 51.8778 7.2436 50.6124 7.2436 39.9414C7.2436 29.2702 7.2819 28.0114 7.47338 23.799C7.65154 19.9028 8.30256 17.7882 8.84954 16.3796C9.57376 14.5148 10.4413 13.1828 11.8399 11.7841C13.2385 10.3855 14.5705 9.51976 16.4353 8.79376C17.844 8.24432 19.9594 7.59498 23.8554 7.416C27.5418 7.2495 28.9704 7.19954 36.418 7.19122V7.2012ZM61.3334 13.8363C58.686 13.8363 56.5382 15.9817 56.5382 18.6299C56.5382 21.2772 58.686 23.4252 61.3334 23.4252C63.9808 23.4252 66.1286 21.2772 66.1286 18.6299C66.1286 15.9825 63.9808 13.8363 61.3334 13.8363ZM40.0028 19.4391C28.6698 19.4391 19.4815 28.6276 19.4815 39.9604C19.4815 51.2934 28.6698 60.4776 40.0028 60.4776C51.3358 60.4776 60.521 51.2934 60.521 39.9604C60.521 28.6276 51.3358 19.4391 40.0028 19.4391ZM40.0028 26.6404C47.3588 26.6404 53.323 32.6036 53.323 39.9604C53.323 47.3166 47.3588 53.2806 40.0028 53.2806C32.646 53.2806 26.6826 47.3166 26.6826 39.9604C26.6826 32.6036 32.646 26.6404 40.0028 26.6404Z" fill="black"/>
</g>
</g>
<defs>
<clipPath id="clip0_1063_315">
<rect width="80" height="80" fill="white"/>
</clipPath>
</defs>
</svg>
